<svg width="1440" height="72" viewBox="0 0 1440 72" fill="none" xmlns="http://www.w3.org/2000/svg">
<circle cx="357" cy="3" r="3" fill="#F3F0EA"/>
<circle cx="467" cy="3" r="3" fill="#F3F0EA"/>
<circle cx="269" cy="3" r="3" fill="#F3F0EA"/>
<circle cx="379" cy="3" r="3" fill="#F3F0EA"/>
<circle cx="489" cy="3" r="3" fill="#F3F0EA"/>
<circle cx="291" cy="3" r="3" fill="#F3F0EA"/>
<circle cx="401" cy="3" r="3" fill="#F3F0EA"/>
<circle cx="511" cy="3" r="3" fill="#F3F0EA"/>
<circle cx="313" cy="3" r="3" fill="#F3F0EA"/>
<circle cx="423" cy="3" r="3" fill="#F3F0EA"/>
<circle cx="533" cy="3" r="3" fill="#F3F0EA"/>
<circle cx="335" cy="3" r="3" fill="#F3F0EA"/>
<circle cx="445" cy="3" r="3" fill="#F3F0EA"/>
<circle cx="555" cy="3" r="3" fill="#F3F0EA"/>
<circle cx="357" cy="47" r="3" fill="#F3F0EA"/>
<circle cx="467" cy="47" r="3" fill="#F3F0EA"/>
<circle cx="269" cy="47" r="3" fill="#F3F0EA"/>
<circle cx="379" cy="47" r="3" fill="#F3F0EA"/>
<circle cx="489" cy="47" r="3" fill="#F3F0EA"/>
<circle cx="291" cy="47" r="3" fill="#F3F0EA"/>
<circle cx="401" cy="47" r="3" fill="#F3F0EA"/>
<circle cx="511" cy="47" r="3" fill="#F3F0EA"/>
<circle cx="313" cy="47" r="3" fill="#F3F0EA"/>
<circle cx="423" cy="47" r="3" fill="#F3F0EA"/>
<circle cx="533" cy="47" r="3" fill="#F3F0EA"/>
<circle cx="335" cy="47" r="3" fill="#F3F0EA"/>
<circle cx="445" cy="47" r="3" fill="#F3F0EA"/>
<circle cx="555" cy="47" r="3" fill="#F3F0EA"/>
<circle cx="357" cy="25" r="3" fill="#F3F0EA"/>
<circle cx="467" cy="25" r="3" fill="#F3F0EA"/>
<circle cx="269" cy="25" r="3" fill="#F3F0EA"/>
<circle cx="379" cy="25" r="3" fill="#F3F0EA"/>
<circle cx="489" cy="25" r="3" fill="#F3F0EA"/>
<circle cx="291" cy="25" r="3" fill="#F3F0EA"/>
<circle cx="401" cy="25" r="3" fill="#F3F0EA"/>
<circle cx="511" cy="25" r="3" fill="#F3F0EA"/>
<circle cx="313" cy="25" r="3" fill="#F3F0EA"/>
<circle cx="423" cy="25" r="3" fill="#F3F0EA"/>
<circle cx="533" cy="25" r="3" fill="#F3F0EA"/>
<circle cx="335" cy="25" r="3" fill="#F3F0EA"/>
<circle cx="445" cy="25" r="3" fill="#F3F0EA"/>
<circle cx="555" cy="25" r="3" fill="#F3F0EA"/>
<circle cx="357" cy="69" r="3" fill="#F3F0EA"/>
<circle cx="467" cy="69" r="3" fill="#F3F0EA"/>
<circle cx="269" cy="69" r="3" fill="#F3F0EA"/>
<circle cx="379" cy="69" r="3" fill="#F3F0EA"/>
<circle cx="489" cy="69" r="3" fill="#F3F0EA"/>
<circle cx="291" cy="69" r="3" fill="#F3F0EA"/>
<circle cx="401" cy="69" r="3" fill="#F3F0EA"/>
<circle cx="511" cy="69" r="3" fill="#F3F0EA"/>
<circle cx="313" cy="69" r="3" fill="#F3F0EA"/>
<circle cx="423" cy="69" r="3" fill="#F3F0EA"/>
<circle cx="533" cy="69" r="3" fill="#F3F0EA"/>
<circle cx="335" cy="69" r="3" fill="#F3F0EA"/>
<circle cx="445" cy="69" r="3" fill="#F3F0EA"/>
<circle cx="555" cy="69" r="3" fill="#F3F0EA"/>
<circle cx="49" cy="3" r="3" fill="#F3F0EA"/>
<circle cx="159" cy="3" r="3" fill="#F3F0EA"/>
<circle cx="71" cy="3" r="3" fill="#F3F0EA"/>
<circle cx="181" cy="3" r="3" fill="#F3F0EA"/>
<circle cx="93" cy="3" r="3" fill="#F3F0EA"/>
<circle cx="203" cy="3" r="3" fill="#F3F0EA"/>
<circle cx="5" cy="3" r="3" fill="#F3F0EA"/>
<circle cx="115" cy="3" r="3" fill="#F3F0EA"/>
<circle cx="225" cy="3" r="3" fill="#F3F0EA"/>
<circle cx="27" cy="3" r="3" fill="#F3F0EA"/>
<circle cx="137" cy="3" r="3" fill="#F3F0EA"/>
<circle cx="247" cy="3" r="3" fill="#F3F0EA"/>
<circle cx="49" cy="47" r="3" fill="#F3F0EA"/>
<circle cx="159" cy="47" r="3" fill="#F3F0EA"/>
<circle cx="71" cy="47" r="3" fill="#F3F0EA"/>
<circle cx="181" cy="47" r="3" fill="#F3F0EA"/>
<circle cx="93" cy="47" r="3" fill="#F3F0EA"/>
<circle cx="203" cy="47" r="3" fill="#F3F0EA"/>
<circle cx="5" cy="47" r="3" fill="#F3F0EA"/>
<circle cx="115" cy="47" r="3" fill="#F3F0EA"/>
<circle cx="225" cy="47" r="3" fill="#F3F0EA"/>
<circle cx="27" cy="47" r="3" fill="#F3F0EA"/>
<circle cx="137" cy="47" r="3" fill="#F3F0EA"/>
<circle cx="247" cy="47" r="3" fill="#F3F0EA"/>
<circle cx="49" cy="25" r="3" fill="#F3F0EA"/>
<circle cx="159" cy="25" r="3" fill="#F3F0EA"/>
<circle cx="71" cy="25" r="3" fill="#F3F0EA"/>
<circle cx="181" cy="25" r="3" fill="#F3F0EA"/>
<circle cx="93" cy="25" r="3" fill="#F3F0EA"/>
<circle cx="203" cy="25" r="3" fill="#F3F0EA"/>
<circle cx="5" cy="25" r="3" fill="#F3F0EA"/>
<circle cx="115" cy="25" r="3" fill="#F3F0EA"/>
<circle cx="225" cy="25" r="3" fill="#F3F0EA"/>
<circle cx="27" cy="25" r="3" fill="#F3F0EA"/>
<circle cx="137" cy="25" r="3" fill="#F3F0EA"/>
<circle cx="247" cy="25" r="3" fill="#F3F0EA"/>
<circle cx="49" cy="69" r="3" fill="#F3F0EA"/>
<circle cx="159" cy="69" r="3" fill="#F3F0EA"/>
<circle cx="71" cy="69" r="3" fill="#F3F0EA"/>
<circle cx="181" cy="69" r="3" fill="#F3F0EA"/>
<circle cx="93" cy="69" r="3" fill="#F3F0EA"/>
<circle cx="203" cy="69" r="3" fill="#F3F0EA"/>
<circle cx="5" cy="69" r="3" fill="#F3F0EA"/>
<circle cx="115" cy="69" r="3" fill="#F3F0EA"/>
<circle cx="225" cy="69" r="3" fill="#F3F0EA"/>
<circle cx="27" cy="69" r="3" fill="#F3F0EA"/>
<circle cx="137" cy="69" r="3" fill="#F3F0EA"/>
<circle cx="247" cy="69" r="3" fill="#F3F0EA"/>
<circle cx="973" cy="3" r="3" fill="#F3F0EA"/>
<circle cx="1083" cy="3" r="3" fill="#F3F0EA"/>
<circle cx="885" cy="3" r="3" fill="#F3F0EA"/>
<circle cx="995" cy="3" r="3" fill="#F3F0EA"/>
<circle cx="1105" cy="3" r="3" fill="#F3F0EA"/>
<circle cx="907" cy="3" r="3" fill="#F3F0EA"/>
<circle cx="1017" cy="3" r="3" fill="#F3F0EA"/>
<circle cx="1127" cy="3" r="3" fill="#F3F0EA"/>
<circle cx="929" cy="3" r="3" fill="#F3F0EA"/>
<circle cx="1039" cy="3" r="3" fill="#F3F0EA"/>
<circle cx="1149" cy="3" r="3" fill="#F3F0EA"/>
<circle cx="951" cy="3" r="3" fill="#F3F0EA"/>
<circle cx="1061" cy="3" r="3" fill="#F3F0EA"/>
<circle cx="1171" cy="3" r="3" fill="#F3F0EA"/>
<circle cx="973" cy="47" r="3" fill="#F3F0EA"/>
<circle cx="1083" cy="47" r="3" fill="#F3F0EA"/>
<circle cx="885" cy="47" r="3" fill="#F3F0EA"/>
<circle cx="995" cy="47" r="3" fill="#F3F0EA"/>
<circle cx="1105" cy="47" r="3" fill="#F3F0EA"/>
<circle cx="907" cy="47" r="3" fill="#F3F0EA"/>
<circle cx="1017" cy="47" r="3" fill="#F3F0EA"/>
<circle cx="1127" cy="47" r="3" fill="#F3F0EA"/>
<circle cx="929" cy="47" r="3" fill="#F3F0EA"/>
<circle cx="1039" cy="47" r="3" fill="#F3F0EA"/>
<circle cx="1149" cy="47" r="3" fill="#F3F0EA"/>
<circle cx="951" cy="47" r="3" fill="#F3F0EA"/>
<circle cx="1061" cy="47" r="3" fill="#F3F0EA"/>
<circle cx="1171" cy="47" r="3" fill="#F3F0EA"/>
<circle cx="973" cy="25" r="3" fill="#F3F0EA"/>
<circle cx="1083" cy="25" r="3" fill="#F3F0EA"/>
<circle cx="885" cy="25" r="3" fill="#F3F0EA"/>
<circle cx="995" cy="25" r="3" fill="#F3F0EA"/>
<circle cx="1105" cy="25" r="3" fill="#F3F0EA"/>
<circle cx="907" cy="25" r="3" fill="#F3F0EA"/>
<circle cx="1017" cy="25" r="3" fill="#F3F0EA"/>
<circle cx="1127" cy="25" r="3" fill="#F3F0EA"/>
<circle cx="929" cy="25" r="3" fill="#F3F0EA"/>
<circle cx="1039" cy="25" r="3" fill="#F3F0EA"/>
<circle cx="1149" cy="25" r="3" fill="#F3F0EA"/>
<circle cx="951" cy="25" r="3" fill="#F3F0EA"/>
<circle cx="1061" cy="25" r="3" fill="#F3F0EA"/>
<circle cx="1171" cy="25" r="3" fill="#F3F0EA"/>
<circle cx="973" cy="69" r="3" fill="#F3F0EA"/>
<circle cx="1083" cy="69" r="3" fill="#F3F0EA"/>
<circle cx="885" cy="69" r="3" fill="#F3F0EA"/>
<circle cx="995" cy="69" r="3" fill="#F3F0EA"/>
<circle cx="1105" cy="69" r="3" fill="#F3F0EA"/>
<circle cx="907" cy="69" r="3" fill="#F3F0EA"/>
<circle cx="1017" cy="69" r="3" fill="#F3F0EA"/>
<circle cx="1127" cy="69" r="3" fill="#F3F0EA"/>
<circle cx="929" cy="69" r="3" fill="#F3F0EA"/>
<circle cx="1039" cy="69" r="3" fill="#F3F0EA"/>
<circle cx="1149" cy="69" r="3" fill="#F3F0EA"/>
<circle cx="951" cy="69" r="3" fill="#F3F0EA"/>
<circle cx="1061" cy="69" r="3" fill="#F3F0EA"/>
<circle cx="1171" cy="69" r="3" fill="#F3F0EA"/>
<circle cx="665" cy="3" r="3" fill="#F3F0EA"/>
<circle cx="775" cy="3" r="3" fill="#F3F0EA"/>
<circle cx="577" cy="3" r="3" fill="#F3F0EA"/>
<circle cx="687" cy="3" r="3" fill="#F3F0EA"/>
<circle cx="797" cy="3" r="3" fill="#F3F0EA"/>
<circle cx="599" cy="3" r="3" fill="#F3F0EA"/>
<circle cx="709" cy="3" r="3" fill="#F3F0EA"/>
<circle cx="819" cy="3" r="3" fill="#F3F0EA"/>
<circle cx="621" cy="3" r="3" fill="#F3F0EA"/>
<circle cx="731" cy="3" r="3" fill="#F3F0EA"/>
<circle cx="841" cy="3" r="3" fill="#F3F0EA"/>
<circle cx="643" cy="3" r="3" fill="#F3F0EA"/>
<circle cx="753" cy="3" r="3" fill="#F3F0EA"/>
<circle cx="863" cy="3" r="3" fill="#F3F0EA"/>
<circle cx="665" cy="47" r="3" fill="#F3F0EA"/>
<circle cx="775" cy="47" r="3" fill="#F3F0EA"/>
<circle cx="577" cy="47" r="3" fill="#F3F0EA"/>
<circle cx="687" cy="47" r="3" fill="#F3F0EA"/>
<circle cx="797" cy="47" r="3" fill="#F3F0EA"/>
<circle cx="599" cy="47" r="3" fill="#F3F0EA"/>
<circle cx="709" cy="47" r="3" fill="#F3F0EA"/>
<circle cx="819" cy="47" r="3" fill="#F3F0EA"/>
<circle cx="621" cy="47" r="3" fill="#F3F0EA"/>
<circle cx="731" cy="47" r="3" fill="#F3F0EA"/>
<circle cx="841" cy="47" r="3" fill="#F3F0EA"/>
<circle cx="643" cy="47" r="3" fill="#F3F0EA"/>
<circle cx="753" cy="47" r="3" fill="#F3F0EA"/>
<circle cx="863" cy="47" r="3" fill="#F3F0EA"/>
<circle cx="665" cy="25" r="3" fill="#F3F0EA"/>
<circle cx="775" cy="25" r="3" fill="#F3F0EA"/>
<circle cx="577" cy="25" r="3" fill="#F3F0EA"/>
<circle cx="687" cy="25" r="3" fill="#F3F0EA"/>
<circle cx="797" cy="25" r="3" fill="#F3F0EA"/>
<circle cx="599" cy="25" r="3" fill="#F3F0EA"/>
<circle cx="709" cy="25" r="3" fill="#F3F0EA"/>
<circle cx="819" cy="25" r="3" fill="#F3F0EA"/>
<circle cx="621" cy="25" r="3" fill="#F3F0EA"/>
<circle cx="731" cy="25" r="3" fill="#F3F0EA"/>
<circle cx="841" cy="25" r="3" fill="#F3F0EA"/>
<circle cx="643" cy="25" r="3" fill="#F3F0EA"/>
<circle cx="753" cy="25" r="3" fill="#F3F0EA"/>
<circle cx="863" cy="25" r="3" fill="#F3F0EA"/>
<circle cx="665" cy="69" r="3" fill="#F3F0EA"/>
<circle cx="775" cy="69" r="3" fill="#F3F0EA"/>
<circle cx="577" cy="69" r="3" fill="#F3F0EA"/>
<circle cx="687" cy="69" r="3" fill="#F3F0EA"/>
<circle cx="797" cy="69" r="3" fill="#F3F0EA"/>
<circle cx="599" cy="69" r="3" fill="#F3F0EA"/>
<circle cx="709" cy="69" r="3" fill="#F3F0EA"/>
<circle cx="819" cy="69" r="3" fill="#F3F0EA"/>
<circle cx="621" cy="69" r="3" fill="#F3F0EA"/>
<circle cx="731" cy="69" r="3" fill="#F3F0EA"/>
<circle cx="841" cy="69" r="3" fill="#F3F0EA"/>
<circle cx="643" cy="69" r="3" fill="#F3F0EA"/>
<circle cx="753" cy="69" r="3" fill="#F3F0EA"/>
<circle cx="863" cy="69" r="3" fill="#F3F0EA"/>
<circle cx="1281" cy="3" r="3" fill="#F3F0EA"/>
<circle cx="1391" cy="3" r="3" fill="#F3F0EA"/>
<circle cx="1193" cy="3" r="3" fill="#F3F0EA"/>
<circle cx="1303" cy="3" r="3" fill="#F3F0EA"/>
<circle cx="1413" cy="3" r="3" fill="#F3F0EA"/>
<circle cx="1215" cy="3" r="3" fill="#F3F0EA"/>
<circle cx="1325" cy="3" r="3" fill="#F3F0EA"/>
<circle cx="1435" cy="3" r="3" fill="#F3F0EA"/>
<circle cx="1237" cy="3" r="3" fill="#F3F0EA"/>
<circle cx="1347" cy="3" r="3" fill="#F3F0EA"/>
<circle cx="1259" cy="3" r="3" fill="#F3F0EA"/>
<circle cx="1369" cy="3" r="3" fill="#F3F0EA"/>
<circle cx="1281" cy="47" r="3" fill="#F3F0EA"/>
<circle cx="1391" cy="47" r="3" fill="#F3F0EA"/>
<circle cx="1193" cy="47" r="3" fill="#F3F0EA"/>
<circle cx="1303" cy="47" r="3" fill="#F3F0EA"/>
<circle cx="1413" cy="47" r="3" fill="#F3F0EA"/>
<circle cx="1215" cy="47" r="3" fill="#F3F0EA"/>
<circle cx="1325" cy="47" r="3" fill="#F3F0EA"/>
<circle cx="1435" cy="47" r="3" fill="#F3F0EA"/>
<circle cx="1237" cy="47" r="3" fill="#F3F0EA"/>
<circle cx="1347" cy="47" r="3" fill="#F3F0EA"/>
<circle cx="1259" cy="47" r="3" fill="#F3F0EA"/>
<circle cx="1369" cy="47" r="3" fill="#F3F0EA"/>
<circle cx="1281" cy="25" r="3" fill="#F3F0EA"/>
<circle cx="1391" cy="25" r="3" fill="#F3F0EA"/>
<circle cx="1193" cy="25" r="3" fill="#F3F0EA"/>
<circle cx="1303" cy="25" r="3" fill="#F3F0EA"/>
<circle cx="1413" cy="25" r="3" fill="#F3F0EA"/>
<circle cx="1215" cy="25" r="3" fill="#F3F0EA"/>
<circle cx="1325" cy="25" r="3" fill="#F3F0EA"/>
<circle cx="1435" cy="25" r="3" fill="#F3F0EA"/>
<circle cx="1237" cy="25" r="3" fill="#F3F0EA"/>
<circle cx="1347" cy="25" r="3" fill="#F3F0EA"/>
<circle cx="1259" cy="25" r="3" fill="#F3F0EA"/>
<circle cx="1369" cy="25" r="3" fill="#F3F0EA"/>
<circle cx="1281" cy="69" r="3" fill="#F3F0EA"/>
<circle cx="1391" cy="69" r="3" fill="#F3F0EA"/>
<circle cx="1193" cy="69" r="3" fill="#F3F0EA"/>
<circle cx="1303" cy="69" r="3" fill="#F3F0EA"/>
<circle cx="1413" cy="69" r="3" fill="#F3F0EA"/>
<circle cx="1215" cy="69" r="3" fill="#F3F0EA"/>
<circle cx="1325" cy="69" r="3" fill="#F3F0EA"/>
<circle cx="1435" cy="69" r="3" fill="#F3F0EA"/>
<circle cx="1237" cy="69" r="3" fill="#F3F0EA"/>
<circle cx="1347" cy="69" r="3" fill="#F3F0EA"/>
<circle cx="1259" cy="69" r="3" fill="#F3F0EA"/>
<circle cx="1369" cy="69" r="3" fill="#F3F0EA"/>
</svg>
