<svg width="80" height="80" viewBox="0 0 80 80" fill="none" xmlns="http://www.w3.org/2000/svg">
<g clip-path="url(#clip0_6:1579)">
<rect width="80" height="80" rx="40" fill="#F3F0EA"/>
<path d="M18.1177 17.3726C12.1166 23.3738 8.74516 31.5131 8.74516 40C8.74515 48.487 12.1166 56.6263 18.1177 62.6275C24.1189 68.6286 32.2582 72 40.7451 72C49.2321 72 57.3714 68.6286 63.3726 62.6275L40.7452 40L18.1177 17.3726Z" fill="#71A894"/>
<circle cx="40.7452" cy="40" r="22.4" transform="rotate(135 40.7452 40)" fill="#303031"/>
<path opacity="0.5" fill-rule="evenodd" clip-rule="evenodd" d="M24.906 24.161C16.1582 32.9087 16.1582 47.0916 24.906 55.8394C33.6537 64.5871 47.8366 64.5871 56.5843 55.8394C56.5843 55.8394 56.5843 55.8394 56.5843 55.8394L40.7452 40.0002L24.906 24.161Z" fill="#71A894"/>
</g>
<defs>
<clipPath id="clip0_6:1579">
<rect width="80" height="80" rx="40" fill="white"/>
</clipPath>
</defs>
</svg>
